PathFileType	4	(X/Y/Z)	Run_400 02
DataRate	CameraRate	NumFrames	NumMarkers	Units	OrigDataRate	OrigDataStartFrame	OrigNumFrames
100	100	4	45	mm	100	172	137
Frame#	Time	LASI			RASI			LPSI			RPSI			RTH1			RTH2			RTH3			LTH1			LTH2			LTH3			RTB1			RTB2			RTB3			RLMAL			RMMAL			LTB1			LTB2			LTB3			RCAL			RTOE			RMT5			LCAL			LTOE			LMT5			LACR			RACR			CLAV			C7			LPSH			RUA1			RUA2			RUA3			RLEL			RMEL			LUA1			LUA2			LUA3			LLEL			LMEL			RFAsuperior			RFAradius			RFAulna			LFAsuperior			LFAradius			LFAulna			
		X1	Y1	Z1	X2	Y2	Z2	X3	Y3	Z3	X4	Y4	Z4	X5	Y5	Z5	X6	Y6	Z6	X7	Y7	Z7	X8	Y8	Z8	X9	Y9	Z9	X10	Y10	Z10	X11	Y11	Z11	X12	Y12	Z12	X13	Y13	Z13	X14	Y14	Z14	X15	Y15	Z15	X16	Y16	Z16	X17	Y17	Z17	X18	Y18	Z18	X19	Y19	Z19	X20	Y20	Z20	X21	Y21	Z21	X22	Y22	Z22	X23	Y23	Z23	X24	Y24	Z24	X25	Y25	Z25	X26	Y26	Z26	X27	Y27	Z27	X28	Y28	Z28	X29	Y29	Z29	X30	Y30	Z30	X31	Y31	Z31	X32	Y32	Z32	X33	Y33	Z33	X34	Y34	Z34	X35	Y35	Z35	X36	Y36	Z36	X37	Y37	Z37	X38	Y38	Z38	X39	Y39	Z39	X40	Y40	Z40	X41	Y41	Z41	X42	Y42	Z42	X43	Y43	Z43	X44	Y44	Z44	X45	Y45	Z45	

172	1.82	919.550523	1014.282325	-448.111741	950.5067770000001	1001.362615	-209.521084	764.320124	1055.092927	-353.971503	778.903021	1045.545004	-268.601085	913.010407	748.441915	-170.224891	1008.430617	700.04358	-193.442514	973.873194	589.479243	-203.673171	848.221201	799.017234	-487.203222	948.770801	710.340541	-478.998944	925.250664	603.152494	-454.449231	892.0212759999999	449.324132	-254.549774	835.7646120000001	490.797885	-209.156766	710.7810040000001	466.610223	-248.265463	600.48877	509.262144	-227.425446	615.140114	481.472951	-306.989851	972.409363	378.656179	-395.027492	863.47041	303.348736	-420.095275	885.737039	207.872414	-359.397401	570.496964	559.3766859999999	-298.229417	548.512612	342.880908	-245.583981	537.8653440000001	418.938116	-183.549217	725.739365	93.132327	-303.82658	955.505017	64.54042699999999	-318.24936	889.968662	55.006156	-386.772018	914.317191	1501.662651	-496.928365	939.621302	1492.084169	-174.25637	997.636989	1429.14755	-315.785178	887.345858	1529.387488	-331.783785	830.218716	1468.55233	-502.029109	863.83962	1361.288982	-79.401144	772.739624	1333.951819	-94.479359	764.5542799999999	1284.66367	-43.781983	761.938563	1218.101987	-13.119825	726.338845	1208.071761	-94.877314	819.223527	1378.763446	-560.207356	748.745629	1307.833639	-534.509084	754.3001369999999	1262.42198	-593.860895	746.928594	1188.598795	-617.2137719999999	726.922097	1176.942308	-529.8950129999999	798.499602	1149.794643	-34.542377	968.943866	1118.667075	-129.975753	952.290172	1060.111952	-100.308508	816.178018	1130.584701	-583.9957470000001	978.749688	1177.419493	-537.073844	976.309477	1109.35375	-544.603665	
173	1.83	917.084938	1012.677227	-448.993508	948.504724	1001.600797	-209.825071	763.762015	1055.59607	-355.595818	778.35585	1046.517129	-270.692192	923.621043	753.942586	-168.734778	1023.149328	712.930434	-193.517836	996.566829	600.241359	-201.98507	839.924425	797.058391	-486.91966	937.427458	704.483074	-478.995709	909.659443	598.305842	-454.994801	922.123386	454.686127	-253.78953	863.889633	491.911532	-208.427497	740.38407	460.767424	-247.602736	627.090462	496.136452	-225.43234	643.618688	470.315443	-305.304664	946.498616	371.337939	-394.863895	834.58186	300.888561	-419.656782	852.018449	205.059279	-358.91718	592.642702	544.636554	-295.399955	588.908366	326.513463	-245.161547	572.067608	400.625601	-182.200357	687.04679	94.193381	-303.609018	916.543018	64.246689	-318.863283	850.9884	55.043703	-387.395943	917.6439810000001	1502.064312	-496.370211	935.451172	1492.048527	-173.713332	995.7643399999999	1428.802357	-314.126178	885.622015	1529.167841	-331.972995	834.061902	1467.654917	-503.917464	856.84282	1362.637539	-80.145917	766.324832	1335.559921	-98.38983399999999	756.5896300000001	1286.63801	-47.195761	752.570956	1220.231729	-15.866108	718.8805149999999	1210.056612	-98.193916	827.684606	1376.386871	-561.9263089999999	757.743713	1302.580305	-541.384698	769.39229	1256.331583	-599.118083	765.828707	1182.543522	-621.353016	741.039534	1170.842265	-535.4002819999999	788.040822	1150.130172	-35.234628	960.4449980000001	1113.87233	-124.742159	941.064499	1055.82003	-95.68139600000001	835.788871	1127.755144	-584.3170699999999	993.363264	1181.413953	-530.419259	993.853373	1113.194935	-538.127707	
174	1.84	916.215816	1012.796224	-448.977839	947.653959	1003.313495	-210.447724	764.6650079999999	1057.31094	-357.821713	777.95409	1048.92379	-272.467644	933.623577	761.648719	-167.375171	1036.437144	727.737573	-193.862844	1017.845475	613.5346510000001	-200.535456	833.186296	797.394568	-487.24789	925.962042	699.455242	-478.890064	892.761021	594.934286	-455.377748	951.456137	461.780436	-252.982746	891.304978	493.466014	-207.866599	769.894273	453.874002	-247.109458	653.7425480000001	480.543679	-223.676059	672.46663	456.696868	-303.796062	918.146941	365.882113	-395.499942	802.678415	300.459064	-419.115722	817.25582	204.046223	-359.017931	614.957	526.500511	-293.201825	630.743796	308.445853	-244.803476	607.2352069999999	380.192806	-181.180651	648.31397	96.61485999999999	-302.720858	877.1065589999999	63.950936	-319.13792	811.3913669999999	55.149132	-387.581408	920.405474	1504.572136	-495.574701	930.662525	1493.68496	-173.143903	993.911745	1430.374059	-312.40641	883.6818029999999	1530.637271	-332.153548	837.435983	1468.631653	-505.542356	849.681013	1365.217969	-80.867778	759.686674	1339.003826	-101.404926	748.309059	1290.26321	-50.161462	742.494537	1223.985833	-18.481475	710.92215	1213.894203	-101.58193	835.925882	1376.708764	-564.270794	767.1312820000001	1300.913529	-547.230192	784.067876	1253.701917	-602.833547	783.6326309999999	1179.984836	-623.860582	754.48475	1168.388206	-538.911128	777.329084	1152.742384	-36.560971	951.899374	1114.009825	-120.523618	930.312017	1055.989143	-92.934325	854.741251	1129.0684	-583.366319	1006.238316	1190.969359	-522.769502	1010.5728	1122.795902	-530.838376	
175	1.85	916.818582	1014.489424	-448.871508	947.007798	1007.088817	-210.530117	764.843846	1060.550111	-358.858375	776.499493	1052.896095	-272.872237	942.483067	771.16383	-166.334708	1047.747659	743.986252	-194.200626	1036.812252	628.908055	-199.349039	826.811545	799.486777	-487.556706	913.381311	696.088166	-478.185791	873.959119	593.516499	-455.156654	979.746153	470.049206	-252.409042	917.725917	495.701045	-207.417324	799.405525	446.103861	-246.361035	680.928328	462.531105	-222.354691	701.979479	440.808932	-302.506546	887.8052750000001	362.87695	-396.389076	769.184986	302.311334	-418.79305	781.600625	205.067389	-359.636981	638.083264	505.250256	-291.627414	673.965366	289.228883	-244.710104	643.597164	358.008213	-180.619391	609.5411329999999	101.098478	-301.980327	836.71108	63.601048	-319.055439	771.054449	55.407288	-387.627983	922.748575	1508.935897	-494.674595	925.4563000000001	1496.959571	-172.532866	992.209276	1433.913225	-310.483134	882.03174	1534.190635	-332.188979	840.4717429999999	1471.720296	-507.143596	842.140704	1369.0723	-81.523242	752.396342	1343.993289	-103.565531	739.457405	1295.291057	-52.72439	731.922478	1229.19632	-21.104786	702.284358	1219.237703	-105.020214	844.061698	1379.384661	-566.9958820000001	776.610056	1302.167282	-551.690285	797.489734	1254.039684	-605.025021	799.841691	1180.336012	-625.062512	766.937959	1168.783924	-540.605281	766.669933	1157.767806	-38.401252	943.516042	1118.833126	-117.385369	920.5285720000001	1060.443225	-91.71224100000001	872.156963	1134.043046	-581.267198	1016.766462	1205.085627	-514.730594	1025.687069	1137.284434	-522.871613	
